# xmcd
#
# Track frame offsets: 
#        150
#        13977
#        29958
#        43494
#        58297
#        72578
#        89797
#        103635
#        118172
#        132359
#
# Disc length: 1926 seconds
#
# Revision: 2
# Processed by: cddbd v1.5.2PL0 Copyright (c) Steve Scherf et al.
# Submitted via: ExactAudioCopy v0.99pb3
#
DISCID=a907840a
DTITLE=Los Badd Boyz Del Valle - No Me Se Rajar
DYEAR=2005
DGENRE=Latin
TTITLE0=No Me Se Rajar
TTITLE1=Hermoso Carino
TTITLE2=Quiero Que Me Dejes
TTITLE3=El Cisne
TTITLE4=Ay Jose
TTITLE5=El Ano Viejo
TTITLE6=Nina Que Tienen Tus Ojos
TTITLE7=Porque Tu No Estas?
TTITLE8=Badd Boyz Popurri (por Nuestro Bien, El Parrandero, Pete's Pol
TTITLE8=ka)
TTITLE9=El Hijo Arrepentido
EXTD=YEAR: 2005
EXTT0=
EXTT1=
EXTT2=
EXTT3=
EXTT4=
EXTT5=
EXTT6=
EXTT7=
EXTT8=
EXTT9=
PLAYORDER=
